<svg width="15" height="15" viewBox="0 0 15 15" fill="none" xmlns="http://www.w3.org/2000/svg">
<path d="M14.5506 0.549957H5.99503C5.78007 0.549957 5.60613 0.7239 5.60613 0.938858C5.60613 1.15382 5.78007 1.32776 5.99503 1.32776H13.6118L1.05339 13.8862C0.901473 14.0381 0.901473 14.2842 1.05339 14.4361C1.12934 14.512 1.22887 14.55 1.32836 14.55C1.42786 14.55 1.52735 14.512 1.60333 14.4361L14.1617 1.87766V9.49443C14.1617 9.70939 14.3356 9.88333 14.5506 9.88333C14.7656 9.88333 14.9395 9.70939 14.9395 9.49443V0.938858C14.9395 0.7239 14.7655 0.549957 14.5506 0.549957Z" fill="white"/>
</svg>
