<svg width="8" height="13" viewBox="0 0 8 13" fill="none" xmlns="http://www.w3.org/2000/svg">
<path d="M7.17652 6.92983L2.02083 12.0898C1.86096 12.2498 1.66779 12.3298 1.44131 12.3298C1.21484 12.3298 1.015 12.2498 0.841814 12.0898C0.668625 11.9298 0.582031 11.7298 0.582031 11.4898C0.582031 11.2498 0.675287 11.0498 0.861797 10.8898L5.41799 6.32983L0.861797 1.76983C0.675287 1.60983 0.582031 1.40983 0.582031 1.16983C0.582031 0.929834 0.668625 0.729835 0.841814 0.569835C1.015 0.409834 1.21484 0.329834 1.44131 0.329834C1.66779 0.329834 1.86096 0.409834 2.02083 0.569835L7.17652 5.72983C7.36303 5.88983 7.45628 6.08983 7.45628 6.32983C7.45628 6.56983 7.36303 6.76983 7.17652 6.92983Z" fill="#050B20"/>
</svg>
