<svg width="17" height="16" viewBox="0 0 17 16" fill="none" xmlns="http://www.w3.org/2000/svg">
<path d="M2.36031 0.719864C1.80031 0.719864 1.32031 0.919864 0.920312 1.31986C0.520313 1.71986 0.320312 2.20986 0.320312 2.78986C0.320312 3.36986 0.520313 3.85986 0.920312 4.25986C1.32031 4.65986 1.80031 4.85986 2.36031 4.85986C2.92031 4.85986 3.40031 4.65986 3.80031 4.25986C4.20031 3.85986 4.40031 3.36986 4.40031 2.78986C4.40031 2.20986 4.20031 1.71986 3.80031 1.31986C3.40031 0.919864 2.92031 0.719864 2.36031 0.719864ZM2.36031 1.85986C2.60031 1.85986 2.82031 1.94986 3.02031 2.12986C3.22031 2.30986 3.32031 2.52986 3.32031 2.78986C3.32031 3.04986 3.22031 3.26986 3.02031 3.44986C2.82031 3.62986 2.60031 3.71986 2.36031 3.71986C2.12031 3.71986 1.90031 3.62986 1.70031 3.44986C1.50031 3.26986 1.40031 3.04986 1.40031 2.78986C1.40031 2.52986 1.50031 2.30986 1.70031 2.12986C1.90031 1.94986 2.12031 1.85986 2.36031 1.85986ZM2.36031 11.2199C1.80031 11.2199 1.32031 11.4199 0.920312 11.8199C0.520313 12.2199 0.320312 12.7099 0.320312 13.2899C0.320312 13.8699 0.520313 14.3599 0.920312 14.7599C1.32031 15.1599 1.80031 15.3599 2.36031 15.3599C2.92031 15.3599 3.40031 15.1599 3.80031 14.7599C4.20031 14.3599 4.40031 13.8699 4.40031 13.2899C4.40031 12.7099 4.20031 12.2199 3.80031 11.8199C3.40031 11.4199 2.92031 11.2199 2.36031 11.2199ZM2.36031 12.3599C2.60031 12.3599 2.82031 12.4499 3.02031 12.6299C3.22031 12.8099 3.32031 13.0299 3.32031 13.2899C3.32031 13.5499 3.22031 13.7699 3.02031 13.9499C2.82031 14.1299 2.60031 14.2199 2.36031 14.2199C2.12031 14.2199 1.90031 14.1299 1.70031 13.9499C1.50031 13.7699 1.40031 13.5499 1.40031 13.2899C1.40031 13.0299 1.50031 12.8099 1.70031 12.6299C1.90031 12.4499 2.12031 12.3599 2.36031 12.3599ZM8.36031 0.719864C7.80031 0.719864 7.32031 0.919864 6.92031 1.31986C6.52031 1.71986 6.32031 2.20986 6.32031 2.78986C6.32031 3.36986 6.52031 3.85986 6.92031 4.25986C7.32031 4.65986 7.80031 4.85986 8.36031 4.85986C8.92031 4.85986 9.40031 4.65986 9.80031 4.25986C10.2003 3.85986 10.4003 3.36986 10.4003 2.78986C10.4003 2.20986 10.2003 1.71986 9.80031 1.31986C9.40031 0.919864 8.92031 0.719864 8.36031 0.719864ZM8.36031 1.85986C8.60031 1.85986 8.82031 1.94986 9.02031 2.12986C9.22031 2.30986 9.32031 2.52986 9.32031 2.78986C9.32031 3.04986 9.22031 3.26986 9.02031 3.44986C8.82031 3.62986 8.60031 3.71986 8.36031 3.71986C8.12031 3.71986 7.90031 3.62986 7.70031 3.44986C7.50031 3.26986 7.40031 3.04986 7.40031 2.78986C7.40031 2.52986 7.50031 2.30986 7.70031 2.12986C7.90031 1.94986 8.12031 1.85986 8.36031 1.85986ZM8.36031 11.2199C7.80031 11.2199 7.32031 11.4199 6.92031 11.8199C6.52031 12.2199 6.32031 12.7099 6.32031 13.2899C6.32031 13.8699 6.52031 14.3599 6.92031 14.7599C7.32031 15.1599 7.80031 15.3599 8.36031 15.3599C8.92031 15.3599 9.40031 15.1599 9.80031 14.7599C10.2003 14.3599 10.4003 13.8699 10.4003 13.2899C10.4003 12.7099 10.2003 12.2199 9.80031 11.8199C9.40031 11.4199 8.92031 11.2199 8.36031 11.2199ZM8.36031 12.3599C8.60031 12.3599 8.82031 12.4499 9.02031 12.6299C9.22031 12.8099 9.32031 13.0299 9.32031 13.2899C9.32031 13.5499 9.22031 13.7699 9.02031 13.9499C8.82031 14.1299 8.60031 14.2199 8.36031 14.2199C8.12031 14.2199 7.90031 14.1299 7.70031 13.9499C7.50031 13.7699 7.40031 13.5499 7.40031 13.2899C7.40031 13.0299 7.50031 12.8099 7.70031 12.6299C7.90031 12.4499 8.12031 12.3599 8.36031 12.3599ZM14.3603 0.719864C13.8003 0.719864 13.3203 0.919864 12.9203 1.31986C12.5203 1.71986 12.3203 2.20986 12.3203 2.78986C12.3203 3.36986 12.5203 3.85986 12.9203 4.25986C13.3203 4.65986 13.8003 4.85986 14.3603 4.85986C14.9203 4.85986 15.4003 4.65986 15.8003 4.25986C16.2003 3.85986 16.4003 3.36986 16.4003 2.78986C16.4003 2.20986 16.2003 1.71986 15.8003 1.31986C15.4003 0.919864 14.9203 0.719864 14.3603 0.719864ZM14.3603 1.85986C14.6003 1.85986 14.8203 1.94986 15.0203 2.12986C15.2203 2.30986 15.3203 2.52986 15.3203 2.78986C15.3203 3.04986 15.2203 3.26986 15.0203 3.44986C14.8203 3.62986 14.6003 3.71986 14.3603 3.71986C14.1203 3.71986 13.9003 3.62986 13.7003 3.44986C13.5003 3.26986 13.4003 3.04986 13.4003 2.78986C13.4003 2.52986 13.5003 2.30986 13.7003 2.12986C13.9003 1.94986 14.1203 1.85986 14.3603 1.85986ZM14.3603 11.2199C13.8003 11.2199 13.3203 11.4199 12.9203 11.8199C12.5203 12.2199 12.3203 12.7099 12.3203 13.2899C12.3203 13.8699 12.5203 14.3599 12.9203 14.7599C13.3203 15.1599 13.8003 15.3599 14.3603 15.3599C14.9203 15.3599 15.4003 15.1599 15.8003 14.7599C16.2003 14.3599 16.4003 13.8699 16.4003 13.2899C16.4003 12.7099 16.2003 12.2199 15.8003 11.8199C15.4003 11.4199 14.9203 11.2199 14.3603 11.2199ZM14.3603 12.3599C14.6003 12.3599 14.8203 12.4499 15.0203 12.6299C15.2203 12.8099 15.3203 13.0299 15.3203 13.2899C15.3203 13.5499 15.2203 13.7699 15.0203 13.9499C14.8203 14.1299 14.6003 14.2199 14.3603 14.2199C14.1203 14.2199 13.9003 14.1299 13.7003 13.9499C13.5003 13.7699 13.4003 13.5499 13.4003 13.2899C13.4003 13.0299 13.5003 12.8099 13.7003 12.6299C13.9003 12.4499 14.1203 12.3599 14.3603 12.3599ZM1.82031 4.25986V11.7599C1.82031 11.9199 1.87031 12.0599 1.97031 12.1799C2.07031 12.2999 2.20031 12.3599 2.36031 12.3599C2.52031 12.3599 2.65031 12.2999 2.75031 12.1799C2.85031 12.0599 2.90031 11.9399 2.90031 11.8199V4.25986C2.90031 4.13986 2.85031 4.01986 2.75031 3.89986C2.65031 3.77986 2.52031 3.71986 2.36031 3.71986C2.20031 3.71986 2.07031 3.77986 1.97031 3.89986C1.87031 4.01986 1.82031 4.13986 1.82031 4.25986ZM7.82031 4.25986V11.7599C7.82031 11.9199 7.87031 12.0599 7.97031 12.1799C8.07031 12.2999 8.20031 12.3599 8.36031 12.3599C8.52031 12.3599 8.65031 12.2999 8.75031 12.1799C8.85031 12.0599 8.90031 11.9399 8.90031 11.8199V4.25986C8.90031 4.13986 8.85031 4.01986 8.75031 3.89986C8.65031 3.77986 8.52031 3.71986 8.36031 3.71986C8.20031 3.71986 8.07031 3.77986 7.97031 3.89986C7.87031 4.01986 7.82031 4.13986 7.82031 4.25986ZM13.8203 4.25986V7.25986C13.8203 7.33986 13.8003 7.39986 13.7603 7.43986C13.7203 7.47986 13.6803 7.49986 13.6403 7.49986H2.36031C2.20031 7.49986 2.07031 7.54986 1.97031 7.64986C1.87031 7.74986 1.82031 7.87986 1.82031 8.03986C1.82031 8.19986 1.87031 8.32986 1.97031 8.42986C2.07031 8.52986 2.20031 8.57986 2.36031 8.57986H13.6403C14.0003 8.57986 14.3003 8.45986 14.5403 8.21986C14.7803 7.97986 14.9003 7.65986 14.9003 7.25986V4.31986C14.9003 4.15986 14.8503 4.01986 14.7503 3.89986C14.6503 3.77986 14.5203 3.71986 14.3603 3.71986C14.2003 3.71986 14.0703 3.77986 13.9703 3.89986C13.8703 4.01986 13.8203 4.13986 13.8203 4.25986Z" fill="#050B20"/>
</svg>
