<svg width="19" height="19" viewBox="0 0 19 19" fill="none" xmlns="http://www.w3.org/2000/svg">
<g clip-path="url(#clip0_5_6919)">
<path d="M18.9492 10.6599C18.9492 12.6999 18.3492 14.5199 17.1492 16.1199C17.0292 16.2799 16.8692 16.3699 16.6692 16.3899C16.4692 16.4099 16.2892 16.3599 16.1292 16.2399C15.9692 16.1199 15.8792 15.9699 15.8592 15.7899C15.8392 15.6099 15.8892 15.4399 16.0092 15.2799C17.0492 13.9199 17.5692 12.3799 17.5692 10.6599C17.5692 9.29988 17.2292 8.03988 16.5492 6.87988C15.8692 5.71988 14.9392 4.79988 13.7592 4.11988C12.5792 3.43988 11.3092 3.09988 9.94922 3.09988C8.58922 3.09988 7.31922 3.43988 6.13922 4.11988C4.95922 4.79988 4.02922 5.71988 3.34922 6.87988C2.66922 8.03988 2.32922 9.29988 2.32922 10.6599C2.32922 12.3799 2.84922 13.9199 3.88922 15.2799C4.00922 15.4399 4.05922 15.6099 4.03922 15.7899C4.01922 15.9699 3.92922 16.1199 3.76922 16.2399C3.60922 16.3599 3.42922 16.4099 3.22922 16.3899C3.02922 16.3699 2.86922 16.2799 2.74922 16.1199C1.54922 14.5199 0.949219 12.6999 0.949219 10.6599C0.949219 9.05988 1.34922 7.56988 2.14922 6.18988C2.94922 4.80988 4.03922 3.71988 5.41922 2.91988C6.79922 2.11988 8.30922 1.71988 9.94922 1.71988C11.5892 1.71988 13.0992 2.11988 14.4792 2.91988C15.8592 3.71988 16.9492 4.80988 17.7492 6.18988C18.5492 7.56988 18.9492 9.05988 18.9492 10.6599ZM14.3892 6.45988C14.5492 6.57988 14.6292 6.73988 14.6292 6.93988C14.6292 7.13988 14.5492 7.29988 14.3892 7.41988L12.1092 9.75988C12.3092 10.1199 12.4092 10.4999 12.4092 10.8999C12.4092 11.5799 12.1692 12.1599 11.6892 12.6399C11.2092 13.1199 10.6292 13.3599 9.94922 13.3599C9.26922 13.3599 8.68922 13.1199 8.20922 12.6399C7.72922 12.1599 7.48922 11.5799 7.48922 10.8999C7.48922 10.2199 7.72922 9.63988 8.20922 9.15988C8.68922 8.67988 9.26922 8.43988 9.94922 8.43988C10.3492 8.43988 10.7292 8.53988 11.0892 8.73988L13.4292 6.45988C13.5492 6.29988 13.7092 6.21988 13.9092 6.21988C14.1092 6.21988 14.2692 6.29988 14.3892 6.45988ZM11.0292 10.8999C11.0292 10.6199 10.9192 10.3799 10.6992 10.1799C10.4792 9.97988 10.2292 9.87988 9.94922 9.87988C9.66922 9.87988 9.41922 9.97988 9.19922 10.1799C8.97922 10.3799 8.86922 10.6199 8.86922 10.8999C8.86922 11.1799 8.97922 11.4299 9.19922 11.6499C9.41922 11.8699 9.66922 11.9799 9.94922 11.9799C10.2292 11.9799 10.4792 11.8699 10.6992 11.6499C10.9192 11.4299 11.0292 11.1799 11.0292 10.8999Z" fill="#050B20"/>
</g>
<defs>
<clipPath id="clip0_5_6919">
<rect width="18" height="18" fill="white" transform="matrix(1 0 0 -1 0.949219 18.0399)"/>
</clipPath>
</defs>
</svg>
