<svg width="18" height="19" viewBox="0 0 18 19" fill="none" xmlns="http://www.w3.org/2000/svg">
<path d="M10.9896 3.39992C10.9896 3.23992 10.9396 3.10992 10.8396 3.00992C10.7396 2.90992 10.6096 2.85992 10.4496 2.85992H4.80961C4.64961 2.85992 4.51961 2.90992 4.41961 3.00992C4.31961 3.10992 4.26961 3.23992 4.26961 3.39992V7.89992C4.26961 8.05992 4.31961 8.19992 4.41961 8.31992C4.51961 8.43992 4.64961 8.49992 4.80961 8.49992H10.4496C10.6096 8.49992 10.7396 8.43992 10.8396 8.31992C10.9396 8.19992 10.9896 8.05992 10.9896 7.89992V3.39992ZM9.84961 7.35992H5.34961V3.99992H9.84961V7.35992ZM17.4696 3.99992L15.1896 2.91992C15.0696 2.83992 14.9296 2.81992 14.7696 2.85992C14.6096 2.89992 14.4996 2.98992 14.4396 3.12992C14.3796 3.26992 14.3696 3.41992 14.4096 3.57992C14.4496 3.73992 14.5496 3.83992 14.7096 3.87992L15.5496 4.35992L15.4896 4.53992C15.4896 4.89992 15.5996 5.21992 15.8196 5.49992C16.0396 5.77992 16.3096 5.97992 16.6296 6.09992V12.9399C16.6296 13.0999 16.5696 13.2399 16.4496 13.3599C16.3296 13.4799 16.1996 13.5399 16.0596 13.5399C15.9196 13.5399 15.7896 13.4799 15.6696 13.3599C15.5496 13.2399 15.4896 13.0999 15.4896 12.9399V8.43992C15.4896 7.79992 15.2596 7.21992 14.7996 6.69992C14.3396 6.17992 13.8296 5.85992 13.2696 5.73992V2.25992C13.2696 1.65992 13.0496 1.13992 12.6096 0.699917C12.1696 0.259918 11.6496 0.039917 11.0496 0.039917H4.26961C3.66961 0.039917 3.13961 0.259918 2.67961 0.699917C2.21961 1.13992 1.98961 1.65992 1.98961 2.25992V14.8599L1.20961 15.2799C0.969609 15.3999 0.849609 15.5599 0.849609 15.7599V17.4399C0.849609 17.5999 0.909609 17.7399 1.02961 17.8599C1.14961 17.9799 1.28961 18.0399 1.44961 18.0399H13.8096C13.9696 18.0399 14.0996 17.9799 14.1996 17.8599C14.2996 17.7399 14.3496 17.5999 14.3496 17.4399V15.7599C14.3496 15.5599 14.2496 15.3999 14.0496 15.2799L13.2696 14.8599V6.87992C13.5496 6.99992 13.7996 7.20992 14.0196 7.50992C14.2396 7.80992 14.3496 8.11992 14.3496 8.43992V12.9399C14.3496 13.4199 14.5196 13.8299 14.8596 14.1699C15.1996 14.5099 15.5996 14.6799 16.0596 14.6799C16.5196 14.6799 16.9196 14.5099 17.2596 14.1699C17.5996 13.8299 17.7696 13.4199 17.7696 12.9399V4.53992C17.7696 4.29992 17.6696 4.11992 17.4696 3.99992ZM13.2696 16.8999H1.98961V16.1199L2.82961 15.6999C3.02961 15.6199 3.12961 15.4599 3.12961 15.2199V2.25992C3.12961 1.97992 3.23961 1.72992 3.45961 1.50992C3.67961 1.28992 3.94961 1.17992 4.26961 1.17992H11.0496C11.3296 1.17992 11.5796 1.28992 11.7996 1.50992C12.0196 1.72992 12.1296 1.97992 12.1296 2.25992V15.2199C12.1296 15.4599 12.2296 15.6199 12.4296 15.6999L13.2696 16.1199V16.8999Z" fill="#050B20"/>
</svg>
